<?xml version="1.0" encoding="UTF-8" standalone="no"?>
<!-- Generator: Adobe Illustrator 16.0.3, SVG Export Plug-In . SVG Version: 6.00 Build 0)  -->

<svg
   version="1.1"
   id="Logo"
   x="0px"
   y="0px"
   width="282.68982"
   height="36.718262"
   viewBox="8.512 0 282.68982 36.718262"
   enable-background="new 8.512 0 155.99 38.347"
   xml:space="preserve"
   xmlns="http://www.w3.org/2000/svg"
   xmlns:svg="http://www.w3.org/2000/svg"><defs
   id="defs92" />
<g
   id="g92"
   transform="translate(14.940812,77.240635)">
	
	<path
   fill="#e306c9"
   d="m 41.875157,-74.647099 c 0,0 -5.921479,-2.592978 -15.833876,-2.592978 h -0.0031 c -9.913889,0.0014 -15.835367,2.592978 -15.835367,2.592978 0,0 -0.5296364,11.48191 1.717213,17.974797 3.970031,11.414772 14.116662,14.623918 14.116662,14.623918 h 0.0031 0.0031 c 0,0 10.145138,-3.206161 14.11666,-14.623918 2.24685,-6.491396 1.715724,-17.974797 1.715724,-17.974797 z"
   id="path92"
   style="stroke-width:1.49193;fill:#2bcae9;fill-opacity:1" />
	<polygon
   fill="#ffffff"
   points="21.27,17.561 17.03,17.561 17.03,12.612 12.083,12.612 12.083,8.373 17.03,8.373 17.03,3.426 21.269,3.426 21.27,8.373 26.217,8.373 26.217,12.612 21.27,12.612 "
   id="polygon92"
   transform="matrix(1.491932,0,0,1.491932,-2.5515965,-77.238585)" />
<text
   xml:space="preserve"
   style="font-style:normal;font-variant:normal;font-weight:bold;font-stretch:normal;font-size:28.7318px;font-family:FrutigerNeueW02-Light;-inkscape-font-specification:'FrutigerNeueW02-Light Bold';text-align:start;letter-spacing:-0.1px;word-spacing:0px;writing-mode:lr-tb;direction:ltr;text-anchor:start;fill:#1d2935;fill-opacity:1;stroke-width:1.95898;stroke-linecap:round;stroke-dasharray:0.0195898, 2.35079"
   x="76.873436"
   y="-48.954666"
   id="text92"><tspan
     id="tspan92"
     x="76.873436"
     y="-48.954666"
     style="font-size:28.7318px;letter-spacing:-0.1px;fill:#1d2935;fill-opacity:1;stroke-width:1.95898">ZiviReConnect</tspan></text><text
   xml:space="preserve"
   style="font-style:normal;font-variant:normal;font-weight:bold;font-stretch:normal;font-size:28.7318px;font-family:FrutigerNeueW02-Light;-inkscape-font-specification:'FrutigerNeueW02-Light Bold';text-align:start;letter-spacing:-0.1px;word-spacing:0px;writing-mode:lr-tb;direction:ltr;text-anchor:start;fill:#2bcae9;fill-opacity:1;stroke-width:1.95898;stroke-linecap:round;stroke-dasharray:0.0195898, 2.35079"
   x="119.45547"
   y="-48.954666"
   id="text92-3-5"><tspan
     id="tspan92-8-6"
     x="119.45547"
     y="-48.954666"
     style="font-size:28.7318px;letter-spacing:-0.1px;fill:#2bcae9;fill-opacity:1;stroke-width:1.95898">Re</tspan></text></g>
<path
   style="opacity:1;fill:none;fill-opacity:1;stroke:#dfe4e9;stroke-width:1.1;stroke-linecap:butt;stroke-dasharray:none;stroke-opacity:1"
   d="M 74.034991,5.5843095e-4 73.997711,36.717703"
   id="path93" /></svg>
